<svg width="92" height="90" viewBox="0 0 92 90" fill="none" xmlns="http://www.w3.org/2000/svg">
<path d="M46.0647 0C40.0324 0 34.0592 1.16391 28.4861 3.42527C22.9129 5.68663 17.8491 9.00116 13.5836 13.1796C4.96907 21.6184 0.129475 33.0638 0.129475 44.998C0.0893175 55.3887 3.762 65.4655 10.5108 73.4817L1.32379 82.4813C0.686405 83.1141 0.254631 83.9177 0.0829515 84.7906C-0.0887275 85.6635 0.00738132 86.5667 0.359151 87.3861C0.740679 88.1958 1.35918 88.8761 2.13614 89.3408C2.9131 89.8055 3.81349 90.0335 4.723 89.996H46.0647C58.2475 89.996 69.9313 85.2552 78.5459 76.8164C87.1604 68.3776 92 56.9322 92 44.998C92 33.0638 87.1604 21.6184 78.5459 13.1796C69.9313 4.74085 58.2475 0 46.0647 0ZM46.0647 80.9964H15.7934L20.0654 76.8116C20.9209 75.9685 21.4011 74.828 21.4011 73.6392C21.4011 72.4505 20.9209 71.31 20.0654 70.4669C14.0506 64.5813 10.3049 56.8349 9.46669 48.5474C8.62845 40.2599 10.7494 31.9441 15.4683 25.0167C20.1872 18.0894 27.2119 12.979 35.3458 10.5564C43.4797 8.13378 52.2194 8.54874 60.076 11.7306C67.9326 14.9124 74.4199 20.6643 78.4327 28.0063C82.4456 35.3482 83.7357 43.826 82.0832 51.9952C80.4307 60.1645 75.9378 67.5197 69.3702 72.8079C62.8025 78.096 54.5663 80.9899 46.0647 80.9964ZM69.0324 40.4982H23.0971C21.8788 40.4982 20.7104 40.9723 19.849 41.8162C18.9875 42.66 18.5036 43.8046 18.5036 44.998C18.5036 46.1914 18.9875 47.336 19.849 48.1798C20.7104 49.0237 21.8788 49.4978 23.0971 49.4978H69.0324C70.2506 49.4978 71.419 49.0237 72.2805 48.1798C73.1419 47.336 73.6259 46.1914 73.6259 44.998C73.6259 43.8046 73.1419 42.66 72.2805 41.8162C71.419 40.9723 70.2506 40.4982 69.0324 40.4982ZM59.8453 58.4974H32.2842C31.0659 58.4974 29.8975 58.9715 29.036 59.8154C28.1746 60.6592 27.6906 61.8038 27.6906 62.9972C27.6906 64.1906 28.1746 65.3352 29.036 66.1791C29.8975 67.0229 31.0659 67.497 32.2842 67.497H59.8453C61.0636 67.497 62.232 67.0229 63.0934 66.1791C63.9549 65.3352 64.4388 64.1906 64.4388 62.9972C64.4388 61.8038 63.9549 60.6592 63.0934 59.8154C62.232 58.9715 61.0636 58.4974 59.8453 58.4974ZM32.2842 31.4986H59.8453C61.0636 31.4986 62.232 31.0245 63.0934 30.1806C63.9549 29.3368 64.4388 28.1922 64.4388 26.9988C64.4388 25.8054 63.9549 24.6608 63.0934 23.817C62.232 22.9731 61.0636 22.499 59.8453 22.499H32.2842C31.0659 22.499 29.8975 22.9731 29.036 23.817C28.1746 24.6608 27.6906 25.8054 27.6906 26.9988C27.6906 28.1922 28.1746 29.3368 29.036 30.1806C29.8975 31.0245 31.0659 31.4986 32.2842 31.4986Z" fill="#2E7AFF"/>
</svg>
