<svg width="26" height="26" viewBox="0 0 26 26" fill="none" xmlns="http://www.w3.org/2000/svg">
<path d="M24.1949 22.3488C25.0092 21.2573 25.5679 19.9969 25.83 18.6605C26.0921 17.3242 26.0507 15.9461 25.709 14.6278C25.3673 13.3096 24.734 12.0849 23.8558 11.0442C22.9775 10.0035 21.8768 9.17322 20.6349 8.61475C20.3644 7.05826 19.7426 5.58392 18.817 4.30374C17.8913 3.02356 16.686 1.97123 15.2927 1.2267C13.8994 0.48218 12.3547 0.0650532 10.7761 0.00701706C9.19738 -0.051019 7.62625 0.251563 6.18204 0.891772C4.73783 1.53198 3.45854 2.49297 2.44137 3.70173C1.42421 4.91048 0.695921 6.3352 0.31186 7.86762C-0.0722018 9.40004 -0.101936 10.9998 0.224916 12.5455C0.551768 14.0911 1.22661 15.5419 2.19816 16.7876L0.392163 18.5807C0.211878 18.7635 0.0897512 18.9955 0.0411919 19.2475C-0.00736742 19.4996 0.0198169 19.7604 0.119315 19.997C0.216787 20.2343 0.382312 20.4374 0.595029 20.5808C0.807747 20.7242 1.05814 20.8013 1.31465 20.8026H8.70753C9.44376 22.3548 10.6045 23.6668 12.0554 24.5866C13.5064 25.5064 15.1881 25.9964 16.906 26H24.7016C24.9581 25.9987 25.2085 25.9215 25.4212 25.7782C25.634 25.6348 25.7995 25.4317 25.897 25.1944C25.9964 24.9578 26.0236 24.697 25.9751 24.4449C25.9265 24.1929 25.8044 23.9608 25.6241 23.7781L24.1949 22.3488ZM7.81103 16.9046C7.81281 17.3397 7.84756 17.7741 7.91497 18.2039H4.4459L4.90065 17.7621C5.02243 17.6414 5.11909 17.4976 5.18505 17.3393C5.25101 17.181 5.28498 17.0111 5.28498 16.8396C5.28498 16.6681 5.25101 16.4982 5.18505 16.3399C5.11909 16.1816 5.02243 16.0379 4.90065 15.9171C4.17248 15.1969 3.5952 14.3387 3.20257 13.3927C2.80993 12.4468 2.60982 11.432 2.61392 10.4078C2.61392 8.3402 3.43525 6.35723 4.89722 4.89519C6.35919 3.43314 8.34205 2.61177 10.4096 2.61177C12.0229 2.60207 13.5986 3.09822 14.9154 4.03048C16.2321 4.96273 17.2236 6.28421 17.7505 7.80915C17.4647 7.80915 17.1918 7.80915 16.906 7.80915C14.4938 7.80915 12.1805 8.76742 10.4749 10.4731C8.76924 12.1789 7.81103 14.4923 7.81103 16.9046ZM21.5054 23.4013L21.5704 23.4663H16.906C15.4031 23.4636 13.9477 22.9399 12.7877 21.9845C11.6276 21.0291 10.8347 19.701 10.5439 18.2265C10.2532 16.7519 10.4826 15.2222 11.1931 13.8979C11.9037 12.5736 13.0514 11.5366 14.4407 10.9636C15.83 10.3906 17.375 10.317 18.8124 10.7553C20.2499 11.1937 21.4909 12.1169 22.3241 13.3677C23.1573 14.6185 23.5311 16.1195 23.3818 17.6149C23.2325 19.1104 22.5694 20.5079 21.5054 21.5692C21.2606 21.8091 21.1205 22.136 21.1156 22.4788C21.1163 22.6507 21.1511 22.8207 21.2181 22.9791C21.285 23.1375 21.3826 23.281 21.5054 23.4013Z" fill="white"/>
</svg>
