<svg width="389" height="50" viewBox="0 0 389 50" fill="none" xmlns="http://www.w3.org/2000/svg">
<g filter="url(#filter0_b_1023_6953)">
<path d="M26 25C26 11.1929 37.1929 0 51 0H381C381.552 0 382 0.447715 382 1V2.5C382 28.7335 360.734 50 334.5 50H51C37.1929 50 26 38.8071 26 25Z" fill="#ECF1F4"/>
</g>
<path d="M71.0094 28.016V22.928H68.6254V21.2H71.0094V17.424H73.0254V28.016H71.0094ZM65.5854 27.152V30.416H73.2654V32.144H63.5534V27.152H65.5854ZM61.3774 20.08V18.352H69.0574V20.08H66.2894V21.328C66.2894 22.112 66.4814 22.576 67.3294 23.232C68.0014 23.744 68.8014 24.288 69.6014 24.8L68.5134 26.24C67.8254 25.792 67.1374 25.312 66.5454 24.88C65.8734 24.384 65.4574 24.016 65.3934 23.856H65.3774C65.3134 24.048 64.8654 24.48 64.1294 25.056C63.4414 25.6 62.7374 26.144 61.9374 26.704L60.7534 25.216C61.7614 24.528 62.7214 23.792 63.3934 23.2C63.9534 22.704 64.2734 22.112 64.2734 21.328V20.08H61.3774ZM82.471 31.584V23.792H80.471V22.032H82.471V17.728H84.391V31.584H82.471ZM77.079 22.192V18.608H79.079V22.192C79.079 23.408 79.367 24.064 80.039 24.896C80.631 25.632 81.383 26.448 82.119 27.184L80.791 28.416C80.103 27.712 79.495 27.056 79.015 26.496C78.535 25.936 78.279 25.6 78.183 25.376H78.167C78.087 25.6 77.735 26.096 77.335 26.56C76.903 27.056 76.087 27.968 75.367 28.672L74.007 27.36C74.695 26.688 75.495 25.824 76.103 25.056C76.855 24.096 77.079 23.472 77.079 22.192ZM87.415 17.424V32.304H85.495V17.424H87.415ZM104.013 17.424V22.672H106.061V24.432H104.013V32.304H101.981V17.424H104.013ZM98.7966 24.912C99.4846 25.664 100.317 26.48 101.149 27.232L99.8526 28.592C99.1326 27.92 98.4286 27.216 97.8366 26.608C97.2286 25.984 96.7646 25.456 96.6526 25.184H96.6206C96.5246 25.472 95.9486 26.128 95.4206 26.672C94.8286 27.296 94.2046 27.904 93.2926 28.752L91.9646 27.376C92.8606 26.576 93.6766 25.776 94.3646 25.024C95.2926 24 95.5966 23.216 95.5966 21.904V18.48H97.6606V21.904C97.6606 23.168 97.8366 23.872 98.7966 24.912ZM118.498 17.424V32.304H116.466V17.424H118.498ZM107.698 29.248L106.626 27.648C111.442 24.784 111.746 23.968 111.746 21.6V20.496H106.898V18.752H113.778V21.696C113.778 24.928 113.01 26 107.698 29.248ZM123.288 28.688C121.032 28.688 119.976 27.168 119.976 24.48V22.752C119.976 20.064 121.032 18.544 123.288 18.544C125.528 18.544 126.584 20.064 126.6 22.736H127.784V17.728H129.704V31.584H127.784V24.48H126.6C126.6 27.168 125.544 28.688 123.288 28.688ZM132.712 17.424V32.304H130.792V17.424H132.712ZM123.288 20.304C122.184 20.304 121.832 21.232 121.832 22.976V24.256C121.832 26 122.184 26.928 123.288 26.928C124.392 26.928 124.744 26 124.744 24.256V22.976C124.744 21.232 124.392 20.304 123.288 20.304ZM147.23 17.728V22.496H148.542V17.424H150.478V32.304H148.542V24.24H147.23V31.584H145.294V17.728H147.23ZM137.998 18.832H143.742V20.576H139.998V26.608H140.462C141.758 26.608 143.102 26.56 144.43 26.352L144.638 28.08C143.342 28.304 141.79 28.352 140.462 28.352H137.998V18.832ZM161.155 17.728V22.8H162.419V17.424H164.339V32.304H162.419V24.544H161.155V31.584H159.235V17.728H161.155ZM155.011 28.624C152.867 28.624 151.699 27.168 151.699 25.728V24.96C151.699 23.52 152.867 22.064 155.011 22.064C157.155 22.064 158.323 23.52 158.323 24.96V25.728C158.323 27.168 157.155 28.624 155.011 28.624ZM151.187 19.824H154.003V17.84H155.971V19.824H158.499V21.488H151.187V19.824ZM155.011 23.68C153.971 23.68 153.459 24.48 153.459 25.072V25.616C153.459 26.208 153.971 27.008 155.011 27.008C156.051 27.008 156.563 26.208 156.563 25.616V25.072C156.563 24.48 156.051 23.68 155.011 23.68ZM179.369 28.016V22.928H176.985V21.2H179.369V17.424H181.385V28.016H179.369ZM173.945 27.152V30.416H181.625V32.144H171.913V27.152H173.945ZM169.737 20.08V18.352H177.417V20.08H174.649V21.328C174.649 22.112 174.841 22.576 175.689 23.232C176.361 23.744 177.161 24.288 177.961 24.8L176.873 26.24C176.185 25.792 175.497 25.312 174.905 24.88C174.233 24.384 173.817 24.016 173.753 23.856H173.737C173.673 24.048 173.225 24.48 172.489 25.056C171.801 25.6 171.097 26.144 170.297 26.704L169.113 25.216C170.121 24.528 171.081 23.792 171.753 23.2C172.313 22.704 172.633 22.112 172.633 21.328V20.08H169.737ZM184.718 17.936H194.51V23.6H184.718V17.936ZM186.718 19.616V21.92H192.51V19.616H186.718ZM182.798 24.768H196.43V26.464H190.846V29.056H188.83V26.464H182.798V24.768ZM186.734 27.808V30.432H194.814V32.144H184.718V27.808H186.734ZM208.372 17.424V22.848H210.42V24.608H208.372V32.304H206.34V17.424H208.372ZM197.972 29.232L196.9 27.632C201.716 24.768 201.988 23.952 201.988 21.584V20.512H197.172V18.768H204.02V21.68C204.02 24.912 203.284 25.984 197.972 29.232Z" fill="#4488FF"/>
<path d="M210.378 29.376V27.632C211.722 27.632 212.906 27.632 213.93 27.616V25.392C212.09 25.04 210.922 23.68 210.922 22.176V21.536C210.922 19.776 212.538 18.224 214.922 18.224C217.29 18.224 218.922 19.776 218.922 21.536V22.176C218.922 23.68 217.738 25.024 215.93 25.392V27.584C217.466 27.536 218.618 27.456 219.578 27.36L219.722 29.088C217.962 29.312 215.242 29.376 210.378 29.376ZM222.314 17.424V22.912H224.378V24.672H222.314V32.304H220.314V17.424H222.314ZM214.922 19.952C213.642 19.952 212.842 20.8 212.842 21.648V22.064C212.842 22.912 213.642 23.76 214.922 23.76C216.202 23.76 217.002 22.912 217.002 22.064V21.648C217.002 20.8 216.202 19.952 214.922 19.952ZM237.855 17.728V20.624H239.199V17.424H241.071V32.304H239.199V26.64H237.855V31.584H235.983V17.728H237.855ZM231.647 28.688C229.391 28.688 228.335 27.168 228.335 24.48V22.752C228.335 20.064 229.391 18.544 231.647 18.544C233.903 18.544 234.959 20.064 234.959 22.752V24.48C234.959 27.168 233.903 28.688 231.647 28.688ZM231.647 20.304C230.543 20.304 230.191 21.232 230.191 22.976V24.256C230.191 26 230.543 26.928 231.647 26.928C232.751 26.928 233.103 26 233.103 24.256V22.976C233.103 21.232 232.751 20.304 231.647 20.304ZM237.855 22.336V24.928H239.199V22.336H237.855ZM254.389 17.424V32.304H252.357V17.424H254.389ZM243.589 29.248L242.517 27.648C247.333 24.784 247.637 23.968 247.637 21.6V20.496H242.789V18.752H249.669V21.696C249.669 24.928 248.901 26 243.589 29.248ZM267.435 17.424V23.184H269.483V24.944H267.435V32.304H265.403V17.424H267.435ZM260.043 29.056C257.674 29.056 256.363 27.504 256.363 25.92V24.976C256.363 23.392 257.674 21.84 260.043 21.84C262.411 21.84 263.723 23.392 263.723 24.976V25.92C263.723 27.504 262.411 29.056 260.043 29.056ZM260.043 27.36C261.179 27.36 261.851 26.576 261.851 25.76V25.136C261.851 24.32 261.179 23.536 260.043 23.536C258.907 23.536 258.235 24.32 258.235 25.136V25.76C258.235 26.576 258.907 27.36 260.043 27.36ZM259.019 17.536H261.067V19.456H264.267V21.168H255.675V19.456H259.019V17.536ZM269.392 28.72H274.08V23.536H276.096V28.72H283.024V30.432H269.392V28.72ZM280.608 27.152L278.608 26.912C278.992 24.976 279.12 23.232 279.12 21.36V20.432H271.024V18.688H281.136V20.832C281.136 23.312 280.976 25.312 280.608 27.152ZM299.542 26.208V27.808H298.022V30.704H299.622V32.304H289.686V30.704H291.27V27.808H289.766V26.208H299.542ZM291.878 22.608H291.862C291.766 22.864 291.526 23.136 290.87 23.712C290.134 24.352 289.318 25.024 288.422 25.696L287.222 24.208C288.15 23.52 288.902 22.928 289.67 22.224C290.326 21.632 290.758 20.848 290.758 19.808V17.952H292.806V19.744C292.806 20.8 292.998 21.36 293.862 22.064C294.486 22.576 295.382 23.232 296.182 23.776L295.062 25.184C294.326 24.672 293.606 24.144 293.014 23.68C292.47 23.248 291.958 22.864 291.878 22.608ZM299.526 17.424V25.536H297.51V17.424H299.526ZM293.222 27.808V30.704H296.07V27.808H293.222ZM305.307 28.8C302.587 28.8 301.467 26.992 301.467 24.496V22.72C301.467 20.224 302.587 18.416 305.307 18.416C307.963 18.416 309.099 20.16 309.147 22.56H311.451V17.424H313.483V32.304H311.451V24.304H309.147V24.496C309.147 26.992 308.027 28.8 305.307 28.8ZM305.307 20.192C303.947 20.192 303.403 21.152 303.403 22.96V24.256C303.403 26.064 303.947 27.024 305.307 27.024C306.667 27.024 307.211 26.064 307.211 24.256V22.96C307.211 21.152 306.667 20.192 305.307 20.192ZM314.689 28.736H317.889V25.376C316.961 24.72 316.401 23.76 316.401 22.624V21.888C316.401 19.632 318.593 18.128 321.505 18.128C324.417 18.128 326.609 19.632 326.609 21.888V22.624C326.609 23.776 326.049 24.72 325.121 25.376V28.736H328.321V30.432H314.689V28.736ZM321.505 19.824C319.841 19.824 318.385 20.688 318.385 22V22.512C318.385 23.824 319.841 24.688 321.505 24.688C323.169 24.688 324.625 23.824 324.625 22.512V22C324.625 20.688 323.169 19.824 321.505 19.824ZM321.505 26.384C320.929 26.384 320.385 26.32 319.873 26.208V28.736H323.137V26.208C322.625 26.32 322.081 26.384 321.505 26.384Z" fill="#252525"/>
<defs>
<filter id="filter0_b_1023_6953" x="22" y="-4" width="364" height="58" filterUnits="userSpaceOnUse" color-interpolation-filters="sRGB">
<feFlood flood-opacity="0" result="BackgroundImageFix"/>
<feGaussianBlur in="BackgroundImageFix" stdDeviation="2"/>
<feComposite in2="SourceAlpha" operator="in" result="effect1_backgroundBlur_1023_6953"/>
<feBlend mode="normal" in="SourceGraphic" in2="effect1_backgroundBlur_1023_6953" result="shape"/>
</filter>
</defs>
</svg>
