<svg width="389" height="50" viewBox="0 0 389 50" fill="none" xmlns="http://www.w3.org/2000/svg">
<g filter="url(#filter0_b_1023_6952)">
<path d="M345 25C345 11.1929 333.807 0 320 0H30C29.4477 0 29 0.447715 29 1V2.5C29 28.7335 50.2665 50 76.5 50H320C333.807 50 345 38.8071 345 25Z" fill="#ECF1F4"/>
</g>
<path d="M78.3219 28.016V22.928H75.9379V21.2H78.3219V17.424H80.3379V28.016H78.3219ZM72.8979 27.152V30.416H80.5779V32.144H70.8659V27.152H72.8979ZM68.6899 20.08V18.352H76.3699V20.08H73.6019V21.328C73.6019 22.112 73.7939 22.576 74.6419 23.232C75.3139 23.744 76.1139 24.288 76.9139 24.8L75.8259 26.24C75.1379 25.792 74.4499 25.312 73.8579 24.88C73.1859 24.384 72.7699 24.016 72.7059 23.856H72.6899C72.6259 24.048 72.1779 24.48 71.4419 25.056C70.7539 25.6 70.0499 26.144 69.2499 26.704L68.0659 25.216C69.0739 24.528 70.0339 23.792 70.7059 23.2C71.2659 22.704 71.5859 22.112 71.5859 21.328V20.08H68.6899ZM89.7835 31.584V23.792H87.7835V22.032H89.7835V17.728H91.7035V31.584H89.7835ZM84.3915 22.192V18.608H86.3915V22.192C86.3915 23.408 86.6795 24.064 87.3515 24.896C87.9435 25.632 88.6955 26.448 89.4315 27.184L88.1035 28.416C87.4155 27.712 86.8075 27.056 86.3275 26.496C85.8475 25.936 85.5915 25.6 85.4955 25.376H85.4795C85.3995 25.6 85.0475 26.096 84.6475 26.56C84.2155 27.056 83.3995 27.968 82.6795 28.672L81.3195 27.36C82.0075 26.688 82.8075 25.824 83.4155 25.056C84.1675 24.096 84.3915 23.472 84.3915 22.192ZM94.7275 17.424V32.304H92.8075V17.424H94.7275ZM111.325 17.424V22.672H113.373V24.432H111.325V32.304H109.293V17.424H111.325ZM106.109 24.912C106.797 25.664 107.629 26.48 108.461 27.232L107.165 28.592C106.445 27.92 105.741 27.216 105.149 26.608C104.541 25.984 104.077 25.456 103.965 25.184H103.933C103.837 25.472 103.261 26.128 102.733 26.672C102.141 27.296 101.517 27.904 100.605 28.752L99.2771 27.376C100.173 26.576 100.989 25.776 101.677 25.024C102.605 24 102.909 23.216 102.909 21.904V18.48H104.973V21.904C104.973 23.168 105.149 23.872 106.109 24.912ZM125.811 17.424V32.304H123.779V17.424H125.811ZM115.011 29.248L113.939 27.648C118.755 24.784 119.059 23.968 119.059 21.6V20.496H114.211V18.752H121.091V21.696C121.091 24.928 120.323 26 115.011 29.248ZM130.984 27.632V30.432H139.048V32.144H128.968V27.632H130.984ZM127.048 24.848H140.68V26.56H127.048V24.848ZM128.968 17.936H130.984V21.696H138.728V23.408H128.968V17.936Z" fill="#2F2F2F"/>
<path d="M144.814 25.728H158.446V27.44H152.654V32.304H150.622V27.44H144.814V25.728ZM156.606 24.08H146.606V17.984H148.638V22.368H156.606V24.08ZM158.58 24.944H167.812C168.148 23.456 168.244 22.144 168.244 20.688V20.032H160.26V18.288H170.26V20.32C170.26 21.984 170.116 23.68 169.844 24.944H172.212V26.656H166.404V32.304H164.372V26.656H158.58V24.944ZM184.921 17.424V32.304H182.921V17.424H184.921ZM177.241 25.696C174.841 25.696 173.209 24.128 173.209 22.336V21.696C173.209 19.904 174.841 18.336 177.241 18.336C179.641 18.336 181.273 19.904 181.273 21.696V22.336C181.273 24.128 179.641 25.696 177.241 25.696ZM177.241 20.064C175.945 20.064 175.129 20.928 175.129 21.808V22.224C175.129 23.104 175.945 23.968 177.241 23.968C178.537 23.968 179.353 23.104 179.353 22.224V21.808C179.353 20.928 178.537 20.064 177.241 20.064ZM172.649 29.28V27.536C177.545 27.536 180.249 27.456 182.153 27.264L182.297 28.992C180.457 29.216 177.561 29.28 172.649 29.28ZM201.999 25.824H197.935V28.72H203.743V30.432H190.111V28.72H195.919V25.824H191.855V18.608H201.807V20.32H193.871V24.112H201.999V25.824ZM205.781 27.104H209.685V25.808H203.877V24.176H217.509V25.808H211.701V27.104H215.605V32.304H205.781V27.104ZM210.693 23.392C207.829 23.392 205.812 22.448 205.812 20.672V20.288C205.812 18.512 207.829 17.568 210.693 17.568C213.557 17.568 215.573 18.512 215.573 20.288V20.672C215.573 22.448 213.557 23.392 210.693 23.392ZM210.693 19.184C209.061 19.184 207.812 19.664 207.812 20.352V20.608C207.812 21.296 209.061 21.776 210.693 21.776C212.325 21.776 213.573 21.296 213.573 20.608V20.352C213.573 19.664 212.325 19.184 210.693 19.184ZM207.781 28.72V30.688H213.605V28.72H207.781Z" fill="#4488FF"/>
<path d="M219.434 26.16H229.37V30.016H221.466V30.912H229.802V32.432H219.514V28.56H227.418V27.68H219.434V26.16ZM217.642 23.744H231.274V25.296H217.642V23.744ZM224.458 23.04C221.53 23.04 219.594 22.016 219.594 20.432V20.048C219.594 18.464 221.53 17.44 224.458 17.44C227.386 17.44 229.322 18.464 229.322 20.048V20.432C229.322 22.016 227.386 23.04 224.458 23.04ZM224.458 19.04C222.346 19.04 221.594 19.648 221.594 20.128V20.352C221.594 20.832 222.346 21.44 224.458 21.44C226.57 21.44 227.322 20.832 227.322 20.352V20.128C227.322 19.648 226.57 19.04 224.458 19.04ZM237.984 32.304V26.576H247.232V28.272H239.984V30.608H247.504V32.304H237.984ZM247.216 17.424V20.72H249.168V22.48H247.216V25.904H245.2V17.424H247.216ZM243.024 18.064V25.12H235.984V18.064H237.968V20.096H241.04V18.064H243.024ZM237.968 21.776V23.44H241.04V21.776H237.968ZM250.965 26.16H260.901V30.016H252.997V30.912H261.333V32.432H251.045V28.56H258.949V27.68H250.965V26.16ZM249.173 23.744H262.805V25.296H249.173V23.744ZM255.989 23.04C253.061 23.04 251.125 22.016 251.125 20.432V20.048C251.125 18.464 253.061 17.44 255.989 17.44C258.917 17.44 260.853 18.464 260.853 20.048V20.432C260.853 22.016 258.917 23.04 255.989 23.04ZM255.989 19.04C253.877 19.04 253.125 19.648 253.125 20.128V20.352C253.125 20.832 253.877 21.44 255.989 21.44C258.101 21.44 258.853 20.832 258.853 20.352V20.128C258.853 19.648 258.101 19.04 255.989 19.04ZM266.939 25.728H280.571V27.44H274.779V32.304H272.747V27.44H266.939V25.728ZM273.803 22.016H273.787C273.643 22.32 273.003 22.72 271.963 23.248C271.067 23.696 269.643 24.352 268.635 24.768L267.803 23.104C268.923 22.64 270.267 22.032 271.339 21.456C272.331 20.928 272.731 20.32 272.731 19.344V17.936H274.779V19.344C274.779 20.32 275.179 20.928 276.171 21.456C277.243 22.032 278.587 22.64 279.707 23.104L278.891 24.736C277.883 24.32 276.459 23.664 275.563 23.216C274.523 22.688 273.963 22.304 273.803 22.016ZM297.073 17.424V25.632H295.057V17.424H297.073ZM292.225 32.416C291.617 31.968 290.913 31.376 290.449 30.944C289.937 30.48 289.697 30.192 289.617 30C289.537 30.192 289.185 30.592 288.705 30.992C288.161 31.456 287.441 32.048 286.977 32.4L285.873 31.024C286.417 30.624 287.089 30.096 287.649 29.616C288.417 28.944 288.609 28.544 288.609 27.6V26.272H290.593V27.568C290.593 28.48 290.673 28.816 291.233 29.392C291.505 29.664 291.793 29.936 292.225 30.272C292.657 29.936 292.945 29.664 293.217 29.392C293.761 28.832 293.841 28.48 293.841 27.568V26.272H295.825V27.6C295.825 28.56 296.001 28.928 296.801 29.616C297.361 30.096 298.033 30.624 298.577 31.024L297.489 32.368C297.025 32.016 296.289 31.424 295.745 30.96C295.281 30.56 294.961 30.208 294.865 30C294.785 30.208 294.513 30.48 294.001 30.944C293.537 31.376 292.833 31.968 292.225 32.416ZM288.993 25.232C286.609 25.232 285.185 23.6 285.185 21.824V21.248C285.185 19.472 286.609 17.84 288.993 17.84C291.377 17.84 292.801 19.472 292.801 21.248V21.824C292.801 23.6 291.377 25.232 288.993 25.232ZM288.993 19.552C287.793 19.552 287.105 20.48 287.105 21.296V21.776C287.105 22.592 287.793 23.52 288.993 23.52C290.193 23.52 290.881 22.592 290.881 21.776V21.296C290.881 20.48 290.193 19.552 288.993 19.552ZM300.15 20.288V18.576H310.422V20.288H306.31V20.64C306.31 21.664 306.678 22.272 307.782 22.944C308.774 23.552 309.894 24.128 311.19 24.784L310.294 26.352C309.238 25.84 307.766 25.04 306.742 24.432C305.91 23.936 305.494 23.584 305.35 23.296H305.334C305.206 23.6 304.71 23.952 303.846 24.464C302.822 25.072 301.366 25.856 300.294 26.384L299.382 24.784C300.678 24.128 301.798 23.552 302.79 22.944C303.894 22.272 304.262 21.664 304.262 20.64V20.288H300.15ZM308.358 26.032V28.736H312.102V30.432H298.47V28.736H302.214V26.032H304.214V28.736H306.358V26.032H308.358ZM317.276 27.744H315.372V27.04C315.372 25.968 315.388 25.408 316.604 24.288C318.028 22.976 318.204 22.656 318.204 21.824V21.664C318.204 21.008 317.74 20.416 316.476 20.416C315.484 20.416 314.668 20.832 313.98 21.488L312.86 20.08C313.884 19.056 315.164 18.608 316.54 18.608C318.892 18.608 320.252 19.856 320.252 21.6V21.824C320.252 23.392 319.34 24.192 318.348 25.136C317.532 25.92 317.276 26.16 317.276 27.088V27.744ZM315.276 31.152V29.072H317.388V31.152H315.276Z" fill="#272727"/>
<defs>
<filter id="filter0_b_1023_6952" x="25" y="-4" width="324" height="58" filterUnits="userSpaceOnUse" color-interpolation-filters="sRGB">
<feFlood flood-opacity="0" result="BackgroundImageFix"/>
<feGaussianBlur in="BackgroundImageFix" stdDeviation="2"/>
<feComposite in2="SourceAlpha" operator="in" result="effect1_backgroundBlur_1023_6952"/>
<feBlend mode="normal" in="SourceGraphic" in2="effect1_backgroundBlur_1023_6952" result="shape"/>
</filter>
</defs>
</svg>
