<svg width="1061" height="378" viewBox="0 0 1061 378" fill="none" xmlns="http://www.w3.org/2000/svg">
<g opacity="0.12">
<ellipse cx="54.0504" cy="54.6344" rx="54.0504" ry="54.6344" transform="matrix(0.905931 0.423426 -0.412041 0.911165 45.0234 73.3884)" fill="white"/>
<path d="M51.532 168.95L60.5843 148.932L76.4048 156.327L67.3526 176.344C66.3568 178.546 67.3219 181.18 69.4972 182.197L81.3626 187.742C83.538 188.759 86.1325 187.789 87.1282 185.587L99.8014 157.563L106.525 160.705C108.345 161.556 110.247 159.68 109.405 157.832L89.9733 112.231C89.0859 110.167 86.7919 109.095 84.6734 109.754L37.9757 124.446C36.0878 125.019 35.8865 127.689 37.7058 128.54L44.4295 131.682L31.7563 159.707C30.7606 161.909 31.7257 164.542 33.901 165.559L45.7664 171.105C47.9417 172.122 50.5363 171.152 51.532 168.95Z" fill="#4488FF"/>
</g>
<g opacity="0.14">
<ellipse cx="30.6909" cy="31.1292" rx="30.6909" ry="31.1292" transform="matrix(0.962946 0.269696 -0.261545 0.965191 717.258 188.879)" fill="white"/>
<path d="M741.828 205.145L747.072 206.613L746.216 214.976L748.198 216.545L756.369 213.939L758.94 218.54L752.554 224.34L752.864 226.875L760.368 230.41L758.923 235.741L750.697 234.871L749.154 236.886L751.718 245.193L747.192 247.807L741.486 241.314L738.993 241.63L735.516 249.258L730.272 247.79L731.128 239.427L729.146 237.858L720.975 240.464L718.404 235.863L724.791 230.063L724.48 227.528L716.976 223.993L718.421 218.662L726.647 219.532L728.19 217.517L725.626 209.21L730.152 206.596L735.858 213.089L738.351 212.773L741.828 205.145ZM740.839 219.205C738.753 218.621 736.524 218.903 734.643 219.99C732.761 221.076 731.382 222.878 730.807 224.999C730.232 227.119 730.51 229.385 731.579 231.298C732.647 233.211 734.419 234.613 736.505 235.197C738.591 235.782 740.82 235.5 742.701 234.413C744.583 233.327 745.963 231.525 746.537 229.404C747.112 227.284 746.834 225.018 745.766 223.105C744.697 221.192 742.925 219.79 740.839 219.205Z" fill="#4488FF"/>
</g>
<g opacity="0.12">
<ellipse cx="37.698" cy="37.8854" rx="37.698" ry="37.8854" transform="matrix(0.801661 -0.597779 0.585083 0.810974 956.227 45.0703)" fill="white"/>
<path d="M1015.57 73.3187L1006.66 60.9641L1016.42 53.6831L1025.34 66.0378C1026.32 67.3968 1028.22 67.6896 1029.56 66.6885L1036.88 61.2278C1038.23 60.2267 1038.52 58.2957 1037.54 56.9367L1025.06 39.6401L1029.21 36.5457C1030.34 35.7084 1029.86 33.8995 1028.47 33.7954L994.636 30.4064C993.103 30.2579 991.687 31.3137 991.365 32.8455L984.382 66.6687C984.086 68.0289 985.615 69.0551 986.738 68.2177L990.888 65.1234L1003.37 82.4199C1004.35 83.7789 1006.25 84.0717 1007.59 83.0706L1014.91 77.6099C1016.26 76.6088 1016.55 74.6777 1015.57 73.3187Z" fill="#4488FF"/>
</g>
<g opacity="0.12">
<ellipse cx="954.744" cy="323.21" rx="53.8928" ry="54.7899" fill="white"/>
<path d="M982.205 337.422H928.267C927.552 337.422 926.866 337.711 926.36 338.225C925.854 338.739 925.57 339.437 925.57 340.164C925.57 340.891 925.854 341.588 926.36 342.102C926.866 342.617 927.552 342.905 928.267 342.905H982.205C982.92 342.905 983.606 342.617 984.112 342.102C984.618 341.588 984.902 340.891 984.902 340.164C984.902 339.437 984.618 338.739 984.112 338.225C983.606 337.711 982.92 337.422 982.205 337.422ZM982.205 348.389H928.267C927.552 348.389 926.866 348.678 926.36 349.192C925.854 349.706 925.57 350.404 925.57 351.131C925.57 351.858 925.854 352.555 926.36 353.07C926.866 353.584 927.552 353.873 928.267 353.873H982.205C982.92 353.873 983.606 353.584 984.112 353.07C984.618 352.555 984.902 351.858 984.902 351.131C984.902 350.404 984.618 349.706 984.112 349.192C983.606 348.678 982.92 348.389 982.205 348.389ZM939.055 310.004C938.521 310.004 938 310.165 937.556 310.466C937.113 310.767 936.767 311.196 936.563 311.697C936.359 312.198 936.306 312.749 936.41 313.281C936.514 313.813 936.771 314.301 937.148 314.685C937.525 315.068 938.005 315.329 938.529 315.435C939.052 315.541 939.594 315.487 940.087 315.279C940.58 315.071 941.001 314.72 941.297 314.269C941.593 313.818 941.752 313.288 941.752 312.746C941.752 312.019 941.468 311.321 940.962 310.807C940.456 310.293 939.77 310.004 939.055 310.004ZM976.811 293.553H933.661C931.515 293.553 929.457 294.42 927.94 295.963C926.423 297.505 925.57 299.597 925.57 301.779V323.713C925.57 325.895 926.423 327.987 927.94 329.529C929.457 331.072 931.515 331.938 933.661 331.938H976.811C978.957 331.938 981.015 331.072 982.532 329.529C984.049 327.987 984.902 325.895 984.902 323.713V301.779C984.902 299.597 984.049 297.505 982.532 295.963C981.015 294.42 978.957 293.553 976.811 293.553ZM979.508 323.713C979.508 324.44 979.224 325.138 978.718 325.652C978.212 326.166 977.526 326.455 976.811 326.455H933.661C932.946 326.455 932.26 326.166 931.754 325.652C931.248 325.138 930.964 324.44 930.964 323.713V301.779C930.964 301.052 931.248 300.354 931.754 299.84C932.26 299.326 932.946 299.037 933.661 299.037H976.811C977.526 299.037 978.212 299.326 978.718 299.84C979.224 300.354 979.508 301.052 979.508 301.779V323.713ZM955.236 304.521C953.636 304.521 952.072 305.003 950.741 305.907C949.411 306.811 948.374 308.095 947.761 309.598C947.149 311.101 946.989 312.755 947.301 314.351C947.613 315.946 948.384 317.412 949.515 318.562C950.647 319.712 952.088 320.496 953.658 320.813C955.227 321.131 956.854 320.968 958.332 320.345C959.811 319.723 961.074 318.668 961.963 317.316C962.852 315.963 963.327 314.373 963.327 312.746C963.327 310.564 962.474 308.472 960.957 306.93C959.44 305.387 957.382 304.521 955.236 304.521ZM955.236 315.488C954.703 315.488 954.181 315.327 953.738 315.026C953.294 314.724 952.949 314.296 952.744 313.795C952.54 313.294 952.487 312.743 952.591 312.211C952.695 311.679 952.952 311.191 953.329 310.807C953.706 310.424 954.187 310.163 954.71 310.057C955.233 309.951 955.775 310.005 956.268 310.213C956.761 310.42 957.182 310.772 957.478 311.223C957.775 311.674 957.933 312.204 957.933 312.746C957.933 313.473 957.649 314.17 957.143 314.685C956.637 315.199 955.951 315.488 955.236 315.488ZM971.417 310.004C970.884 310.004 970.363 310.165 969.919 310.466C969.476 310.767 969.13 311.196 968.926 311.697C968.722 312.198 968.668 312.749 968.772 313.281C968.876 313.813 969.133 314.301 969.51 314.685C969.888 315.068 970.368 315.329 970.891 315.435C971.414 315.541 971.957 315.487 972.449 315.279C972.942 315.071 973.363 314.72 973.66 314.269C973.956 313.818 974.114 313.288 974.114 312.746C974.114 312.019 973.83 311.321 973.324 310.807C972.819 310.293 972.133 310.004 971.417 310.004Z" fill="#4488FF"/>
</g>
<ellipse opacity="0.12" cx="37.7137" cy="38.1465" rx="37.7137" ry="38.1465" transform="matrix(0.917208 -0.398408 0.387438 0.921896 228.547 298.598)" fill="white"/>
<path opacity="0.12" d="M268.123 295.428C255.049 301.107 248.958 316.538 254.544 329.829C260.13 343.121 275.309 349.313 288.382 343.634C301.456 337.956 307.547 322.524 301.961 309.233C296.375 295.942 281.196 289.749 268.123 295.428ZM288.795 323.659C288.525 325.031 287.921 326.234 286.941 327.363C286.206 328.165 285.367 328.827 284.431 329.344L285.792 332.584C286 333.078 285.774 333.648 285.289 333.858L282.66 335.001C282.173 335.212 281.613 334.982 281.406 334.489L279.926 330.969C279.379 331.061 278.819 331.1 278.235 331.085C276.691 331.111 275.258 330.683 274.013 329.811C272.801 329.026 271.856 327.904 271.15 326.401C270.927 325.925 271.118 325.356 271.579 325.117L273.872 323.927C274.335 323.693 274.881 323.86 275.135 324.308C275.567 325.07 276.069 325.639 276.587 325.95C277.192 326.353 277.821 326.517 278.661 326.505C280.459 326.524 282.386 325.689 283.5 324.589C283.982 324.075 284.276 323.598 284.4 323.115C284.492 322.666 284.456 322.252 284.274 321.818C284.102 321.411 283.873 321.155 283.487 320.938C283.282 320.818 282.807 320.633 281.771 320.658C281.278 320.701 280.02 320.864 278.136 321.185C275.929 321.546 274.614 321.663 273.732 321.58C272.425 321.47 271.325 321.103 270.473 320.49C269.602 319.868 268.935 319.014 268.491 317.957C268.007 316.806 267.863 315.573 268.061 314.29C268.292 313.023 268.918 311.835 269.877 310.828C270.192 310.478 270.573 310.133 271.028 309.792L269.776 306.814C269.568 306.319 269.794 305.749 270.279 305.539L272.909 304.396C273.395 304.185 273.956 304.415 274.163 304.908L275.348 307.729C276.195 307.519 277.013 307.405 277.79 307.385C279.321 307.414 280.583 307.795 281.688 308.552C282.769 309.249 283.642 310.27 284.266 311.57C284.495 312.047 284.305 312.622 283.84 312.863L281.492 314.078C281.039 314.313 280.496 314.149 280.237 313.711C279.678 312.762 279.051 312.202 278.32 312.002C277.472 311.733 276.464 311.874 275.203 312.422C273.968 312.958 273.079 313.632 272.699 314.323C272.39 314.883 272.356 315.411 272.596 315.982C272.78 316.421 273.06 316.706 273.429 316.833C273.618 316.885 274.605 317.06 277.325 316.51C279.594 316.109 281.298 315.901 282.281 315.904C283.859 315.935 285.132 316.305 286.082 317.003C287.097 317.676 287.852 318.596 288.352 319.787C288.873 321.026 289.022 322.328 288.795 323.659Z" fill="#004CD1"/>
<g opacity="0.14">
<ellipse cx="381.205" cy="54.7899" rx="53.8928" ry="54.7899" fill="white"/>
<path fill-rule="evenodd" clip-rule="evenodd" d="M362.852 80.4925H360.38C358.168 80.4925 356.046 79.597 354.481 78.0084C352.917 76.4174 352.039 74.2596 352.039 72.0112V26.5749C352.039 24.3266 352.917 22.1687 354.481 20.5801C356.046 18.9891 358.168 18.0959 360.38 18.0959H392.096C394.308 18.0959 396.429 18.9891 397.995 20.5801C399.558 22.1687 400.436 24.3266 400.436 26.5749V29.0876H402.908C405.12 29.0876 407.242 29.9808 408.808 31.5718C410.371 33.1628 411.249 35.3182 411.249 37.569V83.0029C411.249 85.2536 410.371 87.4091 408.808 89.0001C407.242 90.5911 405.12 91.4842 402.908 91.4842H371.193C368.98 91.4842 366.859 90.5911 365.293 89.0001C363.73 87.4091 362.852 85.2536 362.852 83.0029V80.4925ZM395.29 72.0112V26.5749C395.29 25.7151 394.952 24.8886 394.353 24.2813C393.754 23.6716 392.943 23.331 392.096 23.331H360.38C359.532 23.331 358.721 23.6716 358.122 24.2813C357.523 24.8886 357.186 25.7151 357.186 26.5749V72.0112C357.186 72.871 357.523 73.6975 358.122 74.3072C358.721 74.9145 359.532 75.2575 360.38 75.2575H392.096C392.943 75.2575 393.754 74.9145 394.353 74.3072C394.952 73.6975 395.29 72.871 395.29 72.0112ZM367.999 80.4925V83.0029C367.999 83.8651 368.336 84.6892 368.935 85.2989C369.534 85.9086 370.345 86.2492 371.193 86.2492H402.908C403.756 86.2492 404.567 85.9086 405.166 85.2989C405.765 84.6892 406.102 83.8651 406.102 83.0029V37.569C406.102 36.7068 405.765 35.8827 405.166 35.273C404.567 34.6633 403.756 34.3227 402.908 34.3227H400.436V72.0112C400.436 74.2596 399.558 76.4174 397.995 78.0084C396.429 79.597 394.308 80.4925 392.096 80.4925H367.999ZM363.263 58.5068C361.842 58.5068 360.689 57.3326 360.689 55.8893C360.689 54.4436 361.842 53.2717 363.263 53.2717H389.213C390.634 53.2717 391.786 54.4436 391.786 55.8893C391.786 57.3326 390.634 58.5068 389.213 58.5068H363.263ZM363.263 35.0562C361.842 35.0562 360.689 33.8821 360.689 32.4387C360.689 30.993 361.842 29.8212 363.263 29.8212H389.213C390.634 29.8212 391.786 30.993 391.786 32.4387C391.786 33.8821 390.634 35.0562 389.213 35.0562H363.263ZM363.263 70.232C361.842 70.232 360.689 69.0578 360.689 67.6145C360.689 66.1688 361.842 64.997 363.263 64.997H389.213C390.634 64.997 391.786 66.1688 391.786 67.6145C391.786 69.0578 390.634 70.232 389.213 70.232H363.263ZM363.263 46.7815C361.842 46.7815 360.689 45.6073 360.689 44.164C360.689 42.7183 361.842 41.5465 363.263 41.5465H389.213C390.634 41.5465 391.786 42.7183 391.786 44.164C391.786 45.6073 390.634 46.7815 389.213 46.7815H363.263Z" fill="#4488FF"/>
</g>
</svg>
