<svg width="143" height="146" viewBox="0 0 143 146" fill="none" xmlns="http://www.w3.org/2000/svg">
<ellipse cx="54.0504" cy="54.6344" rx="54.0504" ry="54.6344" transform="matrix(0.905931 0.423426 -0.412041 0.911165 45.0234 0.388428)" fill="white"/>
<path d="M51.532 95.9501L60.5843 75.9323L76.4048 83.3267L67.3526 103.344C66.3568 105.546 67.3219 108.18 69.4972 109.197L81.3626 114.742C83.5379 115.759 86.1325 114.789 87.1282 112.587L99.8014 84.5626L106.525 87.7052C108.345 88.5556 110.247 86.6803 109.405 84.8322L89.9733 39.2311C89.0859 37.1675 86.7919 36.0953 84.6734 36.754L37.9757 51.4464C36.0878 52.019 35.8865 54.6892 37.7058 55.5396L44.4295 58.6822L31.7563 86.707C30.7606 88.909 31.7257 91.5425 33.901 92.5592L45.7664 98.105C47.9417 99.1217 50.5363 98.152 51.532 95.9501Z" fill="#4488FF"/>
</svg>
