<svg width="132" height="27" viewBox="0 0 132 27" fill="none" xmlns="http://www.w3.org/2000/svg">
<path fill-rule="evenodd" clip-rule="evenodd" d="M127.704 6.07478L131.256 9.13608C132.017 9.79125 132.017 10.8535 131.256 11.5086C130.496 12.1638 129.263 12.1638 128.503 11.5086L123.57 7.25728C122.81 6.60212 122.81 5.5399 123.57 4.88473C123.611 4.8497 123.653 4.81656 123.696 4.78527C123.712 4.77091 123.728 4.75672 123.744 4.74271L128.677 0.491369C129.437 -0.16379 130.67 -0.16379 131.43 0.491369C132.19 1.14653 132.19 2.20876 131.43 2.86391L127.704 6.07478Z" fill="#188EFF"/>
<path d="M1.80121 22.494V8.795H7.12121C10.0282 8.795 11.4342 9.897 11.4342 12.139V12.538C11.4342 13.735 10.9022 14.894 9.26821 15.293C10.9402 15.54 12.0612 16.509 12.0612 18.409V18.884C12.0612 21.126 10.6742 22.494 7.71021 22.494H1.80121ZM4.21421 16.357V20.48H6.41821C8.56521 20.48 9.57221 20.233 9.57221 18.618V18.2C9.57221 16.775 8.66021 16.357 6.05721 16.357H4.21421ZM6.07621 10.809H4.21421V14.381H6.00021C7.90021 14.381 8.96421 14.324 8.96421 12.614V12.272C8.96421 11.113 8.12821 10.809 6.07621 10.809ZM19.6637 8.586C22.7797 8.586 25.4587 10.277 25.4587 14.514V16.775C25.4587 21.088 22.8177 22.703 19.6637 22.703C16.5097 22.703 13.8687 21.088 13.8687 16.775V14.514C13.8687 10.277 16.5667 8.586 19.6637 8.586ZM19.6637 20.48C21.5257 20.48 23.0077 19.625 23.0077 16.471V14.818C23.0077 11.664 21.5257 10.809 19.6637 10.809C17.8397 10.809 16.3197 11.664 16.3197 14.818V16.471C16.3197 19.625 17.8397 20.48 19.6637 20.48ZM33.3385 8.586C36.4545 8.586 39.1335 10.277 39.1335 14.514V16.775C39.1335 21.088 36.4925 22.703 33.3385 22.703C30.1845 22.703 27.5435 21.088 27.5435 16.775V14.514C27.5435 10.277 30.2415 8.586 33.3385 8.586ZM33.3385 20.48C35.2005 20.48 36.6825 19.625 36.6825 16.471V14.818C36.6825 11.664 35.2005 10.809 33.3385 10.809C31.5145 10.809 29.9945 11.664 29.9945 14.818V16.471C29.9945 19.625 31.5145 20.48 33.3385 20.48ZM47.5073 20.214L44.6763 12.994C44.4863 12.519 44.2963 11.911 43.9733 10.923V22.494H41.7123V8.795H45.1703L48.5333 17.307L51.7633 8.795H55.2593V22.494H52.9603V10.923C52.6753 12.063 52.4853 12.5 52.3143 12.994L49.4453 20.214H47.5073ZM58.3373 8.795H67.1533V10.809H60.7503V14.495H66.7543V16.471H60.7503V20.48H67.2863V22.494H58.3373V8.795ZM77.4209 22.494L75.1219 17.003H72.3289V22.494H69.8969V8.795H75.0839C77.9339 8.795 79.5109 10.372 79.5109 12.557V13.26C79.5109 14.685 78.7889 15.92 77.3829 16.547C78.2949 18.542 79.1499 20.499 80.0619 22.494H77.4209ZM74.7799 10.828H72.3289V14.97H74.5709C76.4519 14.97 77.0979 14.248 77.0979 13.203V12.633C77.0979 11.569 76.4519 10.828 74.7799 10.828ZM88.5199 8.795L93.6689 22.494H91.0279L89.6979 18.732H85.0809L83.7319 22.494H81.2429L86.3349 8.795H88.5199ZM86.7149 13.906L85.7839 16.699H88.9949L88.0639 13.906C87.7409 12.994 87.5699 12.462 87.3799 11.797C87.1709 12.557 87.0569 12.937 86.7149 13.906ZM95.558 22.494V8.795H98.351L103.025 17.098C103.31 17.611 103.69 18.371 103.899 19.264V8.795H106.179V22.494H103.386L98.693 14.172C98.351 13.564 98.009 12.842 97.838 12.063V22.494H95.558ZM114.837 8.586C116.452 8.586 118.105 8.985 119.511 10.125L118.2 11.987C117.193 11.094 115.977 10.79 114.837 10.79C112.728 10.79 111.189 11.569 111.189 15.046V16.452C111.189 19.435 112.766 20.499 114.989 20.499C115.882 20.499 116.547 20.366 117.231 20.1V16.813H114.362V14.78H119.644V21.449C118.428 22.266 116.509 22.703 114.875 22.703C111.398 22.703 108.757 21.031 108.757 16.946V14.495C108.757 10.391 111.322 8.586 114.837 8.586Z" fill="#0075E4"/>
</svg>
