<svg width="109" height="110" viewBox="0 0 109 110" fill="none" xmlns="http://www.w3.org/2000/svg">
    <g opacity="0.15">
        <path d="M108.098 54.7899C108.098 85.0495 83.9695 109.58 54.2053 109.58C24.4411 109.58 0.3125 85.0495 0.3125 54.7899C0.3125 24.5303 24.4411 0 54.2053 0C83.9695 0 108.098 24.5303 108.098 54.7899Z" fill="white"/>
        <path fill-rule="evenodd" clip-rule="evenodd" d="M35.8517 80.4925H33.3799C31.1677 80.4925 29.0462 79.597 27.4805 78.0084C25.917 76.4174 25.0391 74.2596 25.0391 72.0112V26.5749C25.0391 24.3266 25.917 22.1687 27.4805 20.5801C29.0462 18.9891 31.1677 18.0959 33.3799 18.0959H65.0955C67.3078 18.0959 69.4292 18.9891 70.9949 20.5801C72.5584 22.1687 73.4364 24.3266 73.4364 26.5749V29.0876H75.9081C78.1204 29.0876 80.2419 29.9808 81.8075 31.5718C83.371 33.1628 84.249 35.3182 84.249 37.569V83.0029C84.249 85.2536 83.371 87.4091 81.8075 89.0001C80.2419 90.5911 78.1204 91.4842 75.9081 91.4842H44.1926C41.9803 91.4842 39.8588 90.5911 38.2932 89.0001C36.7297 87.4091 35.8517 85.2536 35.8517 83.0029V80.4925ZM68.2896 72.0112V26.5749C68.2896 25.7151 67.9522 24.8886 67.3532 24.2813C66.7542 23.6716 65.9432 23.331 65.0955 23.331H33.3799C32.5322 23.331 31.7213 23.6716 31.1223 24.2813C30.5232 24.8886 30.1859 25.7151 30.1859 26.5749V72.0112C30.1859 72.871 30.5232 73.6975 31.1223 74.3072C31.7213 74.9145 32.5322 75.2575 33.3799 75.2575H65.0955C65.9432 75.2575 66.7542 74.9145 67.3532 74.3072C67.9522 73.6975 68.2896 72.871 68.2896 72.0112ZM40.9985 80.4925V83.0029C40.9985 83.8651 41.3359 84.6892 41.9349 85.2989C42.5339 85.9086 43.3449 86.2492 44.1926 86.2492H75.9081C76.7558 86.2492 77.5668 85.9086 78.1658 85.2989C78.7648 84.6892 79.1022 83.8651 79.1022 83.0029V37.569C79.1022 36.7068 78.7648 35.8827 78.1658 35.273C77.5668 34.6633 76.7558 34.3227 75.9081 34.3227H73.4364V72.0112C73.4364 74.2596 72.5584 76.4174 70.9949 78.0084C69.4292 79.597 67.3078 80.4925 65.0955 80.4925H40.9985ZM36.2626 58.5068C34.8418 58.5068 33.6892 57.3326 33.6892 55.8893C33.6892 54.4436 34.8418 53.2717 36.2626 53.2717H62.2129C63.6337 53.2717 64.7863 54.4436 64.7863 55.8893C64.7863 57.3326 63.6337 58.5068 62.2129 58.5068H36.2626ZM36.2626 35.0562C34.8418 35.0562 33.6892 33.8821 33.6892 32.4387C33.6892 30.993 34.8418 29.8212 36.2626 29.8212H62.2129C63.6337 29.8212 64.7863 30.993 64.7863 32.4387C64.7863 33.8821 63.6337 35.0562 62.2129 35.0562H36.2626ZM36.2626 70.232C34.8418 70.232 33.6892 69.0578 33.6892 67.6145C33.6892 66.1688 34.8418 64.997 36.2626 64.997H62.2129C63.6337 64.997 64.7863 66.1688 64.7863 67.6145C64.7863 69.0578 63.6337 70.232 62.2129 70.232H36.2626ZM36.2626 46.7815C34.8418 46.7815 33.6892 45.6073 33.6892 44.164C33.6892 42.7183 34.8418 41.5465 36.2626 41.5465H62.2129C63.6337 41.5465 64.7863 42.7183 64.7863 44.164C64.7863 45.6073 63.6337 46.7815 62.2129 46.7815H36.2626Z" fill="#4488FF"/>
    </g>
</svg>
