<svg width="862" height="263" viewBox="0 0 862 263" fill="none" xmlns="http://www.w3.org/2000/svg">
<g opacity="0.08">
<circle cx="57.5" cy="7.5" r="54.5" fill="white"/>
<path d="M85.2727 21.6364H30.7273C30.004 21.6364 29.3103 21.9237 28.7988 22.4352C28.2873 22.9466 28 23.6403 28 24.3636C28 25.087 28.2873 25.7806 28.7988 26.2921C29.3103 26.8036 30.004 27.0909 30.7273 27.0909H85.2727C85.996 27.0909 86.6897 26.8036 87.2012 26.2921C87.7127 25.7806 88 25.087 88 24.3636C88 23.6403 87.7127 22.9466 87.2012 22.4352C86.6897 21.9237 85.996 21.6364 85.2727 21.6364ZM85.2727 32.5455H30.7273C30.004 32.5455 29.3103 32.8328 28.7988 33.3443C28.2873 33.8557 28 34.5494 28 35.2727C28 35.996 28.2873 36.6897 28.7988 37.2012C29.3103 37.7127 30.004 38 30.7273 38H85.2727C85.996 38 86.6897 37.7127 87.2012 37.2012C87.7127 36.6897 88 35.996 88 35.2727C88 34.5494 87.7127 33.8557 87.2012 33.3443C86.6897 32.8328 85.996 32.5455 85.2727 32.5455ZM41.6364 -5.63636C41.097 -5.63636 40.5697 -5.47641 40.1212 -5.17673C39.6727 -4.87706 39.3231 -4.45112 39.1167 -3.95277C38.9103 -3.45443 38.8563 -2.90607 38.9615 -2.37703C39.0667 -1.84799 39.3265 -1.36203 39.7079 -0.980618C40.0893 -0.599202 40.5753 -0.339454 41.1043 -0.234222C41.6333 -0.128989 42.1817 -0.182998 42.68 -0.389419C43.1784 -0.59584 43.6043 -0.9454 43.904 -1.3939C44.2037 -1.8424 44.3636 -2.36969 44.3636 -2.90909C44.3636 -3.63241 44.0763 -4.3261 43.5648 -4.83756C43.0534 -5.34903 42.3597 -5.63636 41.6364 -5.63636ZM79.8182 -22H36.1818C34.0119 -22 31.9308 -21.138 30.3964 -19.6036C28.862 -18.0692 28 -15.9881 28 -13.8182V8C28 10.17 28.862 12.251 30.3964 13.7854C31.9308 15.3198 34.0119 16.1818 36.1818 16.1818H79.8182C81.9881 16.1818 84.0692 15.3198 85.6036 13.7854C87.138 12.251 88 10.17 88 8V-13.8182C88 -15.9881 87.138 -18.0692 85.6036 -19.6036C84.0692 -21.138 81.9881 -22 79.8182 -22ZM82.5455 8C82.5455 8.72332 82.2581 9.41701 81.7467 9.92847C81.2352 10.4399 80.5415 10.7273 79.8182 10.7273H36.1818C35.4585 10.7273 34.7648 10.4399 34.2533 9.92847C33.7419 9.41701 33.4545 8.72332 33.4545 8V-13.8182C33.4545 -14.5415 33.7419 -15.2352 34.2533 -15.7467C34.7648 -16.2581 35.4585 -16.5455 36.1818 -16.5455H79.8182C80.5415 -16.5455 81.2352 -16.2581 81.7467 -15.7467C82.2581 -15.2352 82.5455 -14.5415 82.5455 -13.8182V8ZM58 -11.0909C56.3818 -11.0909 54.7999 -10.6111 53.4544 -9.71202C52.1089 -8.81299 51.0602 -7.53517 50.441 -6.04014C49.8217 -4.54511 49.6597 -2.90001 49.9754 -1.3129C50.2911 0.27422 51.0703 1.73208 52.2146 2.87633C53.3588 4.02058 54.8167 4.79982 56.4038 5.11552C57.9909 5.43121 59.636 5.26919 61.131 4.64992C62.6261 4.03066 63.9039 2.98198 64.8029 1.63648C65.702 0.290991 66.1818 -1.29088 66.1818 -2.90909C66.1818 -5.07904 65.3198 -7.16012 63.7854 -8.69451C62.251 -10.2289 60.17 -11.0909 58 -11.0909ZM58 -0.181818C57.4606 -0.181818 56.9333 -0.34177 56.4848 -0.641447C56.0363 -0.941123 55.6867 -1.36706 55.4803 -1.86541C55.2739 -2.36375 55.2199 -2.91212 55.3251 -3.44116C55.4304 -3.97019 55.6901 -4.45615 56.0715 -4.83756C56.4529 -5.21898 56.9389 -5.47873 57.4679 -5.58396C57.997 -5.68919 58.5453 -5.63518 59.0437 -5.42876C59.542 -5.22234 59.968 -4.87278 60.2676 -4.42428C60.5673 -3.97578 60.7273 -3.44849 60.7273 -2.90909C60.7273 -2.18577 60.4399 -1.49208 59.9285 -0.980618C59.417 -0.469155 58.7233 -0.181818 58 -0.181818ZM74.3636 -5.63636C73.8242 -5.63636 73.2969 -5.47641 72.8484 -5.17673C72.3999 -4.87706 72.0504 -4.45112 71.844 -3.95277C71.6375 -3.45443 71.5835 -2.90607 71.6888 -2.37703C71.794 -1.84799 72.0537 -1.36203 72.4352 -0.980618C72.8166 -0.599202 73.3025 -0.339454 73.8316 -0.234222C74.3606 -0.128989 74.909 -0.182998 75.4073 -0.389419C75.9057 -0.59584 76.3316 -0.9454 76.6313 -1.3939C76.931 -1.8424 77.0909 -2.36969 77.0909 -2.90909C77.0909 -3.63241 76.8036 -4.3261 76.2921 -4.83756C75.7806 -5.34903 75.087 -5.63636 74.3636 -5.63636Z" fill="#4488FF"/>
</g>
<g opacity="0.12">
<circle cx="811.977" cy="261.978" r="37.9009" transform="rotate(-36.2588 811.977 261.978)" fill="white"/>
<path d="M819.014 281.931L810 269.642L819.874 262.399L828.888 274.689C829.88 276.04 831.802 276.332 833.159 275.336L840.565 269.904C841.923 268.908 842.222 266.987 841.231 265.636L828.612 248.431L832.808 245.353C833.944 244.52 833.459 242.72 832.054 242.617L797.842 239.246C796.291 239.098 794.86 240.148 794.535 241.672L787.472 275.316C787.174 276.669 788.72 277.69 789.855 276.857L794.052 273.779L806.671 290.984C807.663 292.336 809.585 292.627 810.942 291.631L818.348 286.199C819.706 285.204 820.005 283.283 819.014 281.931Z" fill="#4488FF"/>
</g>
<circle opacity="0.12" cx="38.927" cy="256.928" r="38.0402" transform="rotate(-23.135 38.927 256.928)" fill="white"/>
<path opacity="0.12" d="M29.0226 233.739C15.8018 239.387 9.642 254.737 15.2907 267.958C20.9395 281.179 36.2895 287.339 49.5103 281.69C62.7312 276.041 68.891 260.691 63.2423 247.47C57.5935 234.25 42.2435 228.09 29.0226 233.739ZM49.9279 261.82C49.6547 263.185 49.0443 264.382 48.0532 265.504C47.3095 266.303 46.4612 266.961 45.5145 267.475L46.8914 270.698C47.1016 271.19 46.8733 271.756 46.3826 271.966L43.7233 273.102C43.2314 273.312 42.6649 273.084 42.4552 272.593L40.9592 269.092C40.406 269.183 39.8393 269.222 39.2484 269.207C37.6877 269.233 36.2385 268.807 34.9791 267.94C33.7535 267.159 32.7975 266.043 32.0844 264.548C31.8584 264.075 32.0513 263.508 32.518 263.27L34.8365 262.087C35.3053 261.854 35.8572 262.02 36.1142 262.466C36.5512 263.224 37.0584 263.79 37.5827 264.1C38.1946 264.5 38.8298 264.664 39.6792 264.651C41.4981 264.671 43.4464 263.84 44.5727 262.746C45.0607 262.234 45.3582 261.76 45.4836 261.279C45.5764 260.833 45.5399 260.421 45.3555 259.989C45.1823 259.584 44.9505 259.33 44.5599 259.114C44.3531 258.994 43.8725 258.811 42.8249 258.836C42.3265 258.878 41.0543 259.04 39.1489 259.36C36.9172 259.718 35.5871 259.835 34.6952 259.752C33.3737 259.643 32.2608 259.278 31.3992 258.669C30.5186 258.049 29.8444 257.2 29.395 256.149C28.906 255.004 28.7601 253.777 28.9601 252.501C29.1933 251.241 29.8267 250.059 30.7965 249.057C31.1151 248.709 31.5001 248.366 31.9606 248.027L30.6947 245.064C30.4845 244.572 30.7129 244.006 31.2035 243.796L33.8628 242.66C34.3547 242.45 34.9213 242.678 35.1309 243.169L36.3298 245.975C37.1861 245.766 38.0128 245.652 38.7984 245.632C40.3466 245.661 41.6231 246.04 42.7403 246.793C43.8335 247.487 44.7172 248.503 45.3483 249.796C45.5791 250.27 45.3871 250.842 44.9166 251.081L42.5422 252.29C42.0843 252.524 41.5353 252.361 41.2734 251.925C40.7082 250.981 40.074 250.424 39.3345 250.225C38.4768 249.958 37.4577 250.098 36.1827 250.643C34.934 251.176 34.0348 251.847 33.6501 252.534C33.3378 253.091 33.3039 253.616 33.5463 254.184C33.7329 254.62 34.016 254.904 34.3888 255.03C34.5801 255.082 35.5778 255.257 38.3283 254.709C40.623 254.311 42.3467 254.104 43.3407 254.107C44.9358 254.137 46.224 254.506 47.1839 255.2C48.2106 255.87 48.9739 256.784 49.48 257.969C50.0066 259.201 50.1576 260.496 49.9279 261.82Z" fill="#004CD1"/>
<g opacity="0.14">
<circle cx="672.122" cy="62.1201" r="31" transform="rotate(15.4023 672.122 62.1201)" fill="white"/>
<path d="M675.316 40.1791L680.619 41.6399L679.753 49.9588L681.758 51.5193L690.021 48.9267L692.621 53.5037L686.163 59.2734L686.476 61.7944L694.065 65.3112L692.604 70.6136L684.285 69.7481L682.725 71.7528L685.317 80.016L680.74 82.6159L674.971 76.1573L672.45 76.4711L668.933 84.0596L663.63 82.5988L664.496 74.2799L662.491 72.7193L654.228 75.312L651.628 70.735L658.087 64.9653L657.773 62.4443L650.184 58.9275L651.645 53.625L659.964 54.4906L661.525 52.4859L658.932 44.2227L663.509 41.6228L669.279 48.0814L671.8 47.7676L675.316 40.1791ZM674.316 54.1656C672.206 53.5845 669.952 53.8652 668.05 54.9459C666.147 56.0265 664.752 57.8187 664.171 59.9282C663.59 62.0376 663.87 64.2916 664.951 66.1941C666.032 68.0966 667.824 69.4919 669.933 70.073C672.043 70.6542 674.297 70.3735 676.199 69.2928C678.102 68.2122 679.497 66.4199 680.078 64.3105C680.659 62.201 680.379 59.9471 679.298 58.0446C678.217 56.1421 676.425 54.7468 674.316 54.1656Z" fill="#4488FF"/>
</g>
</svg>
