<svg width="859" height="358" viewBox="0 0 859 358" fill="none" xmlns="http://www.w3.org/2000/svg">
<path d="M121 54.5C121 84.5995 96.5995 109 66.5 109C36.4005 109 12 84.5995 12 54.5C12 24.4005 36.4005 3.85583e-07 66.5 0C96.5995 -3.85583e-07 121 24.4005 121 54.5Z" fill="white"/>
<path d="M94.2727 68.6364H39.7273C39.004 68.6364 38.3103 68.9237 37.7988 69.4352C37.2873 69.9466 37 70.6403 37 71.3636C37 72.0869 37.2873 72.7806 37.7988 73.2921C38.3103 73.8036 39.004 74.0909 39.7273 74.0909L94.2727 74.0909C94.996 74.0909 95.6897 73.8036 96.2012 73.2921C96.7127 72.7806 97 72.0869 97 71.3636C97 70.6403 96.7127 69.9466 96.2012 69.4352C95.6897 68.9237 94.996 68.6364 94.2727 68.6364ZM94.2727 79.5454H39.7273C39.004 79.5454 38.3103 79.8328 37.7988 80.3442C37.2873 80.8557 37 81.5494 37 82.2727C37 82.996 37.2873 83.6897 37.7988 84.2012C38.3103 84.7127 39.004 85 39.7273 85H94.2727C94.996 85 95.6897 84.7127 96.2012 84.2012C96.7127 83.6897 97 82.996 97 82.2727C97 81.5494 96.7127 80.8557 96.2012 80.3442C95.6897 79.8328 94.996 79.5454 94.2727 79.5454ZM50.6364 41.3636C50.097 41.3636 49.5697 41.5236 49.1212 41.8233C48.6727 42.1229 48.3231 42.5489 48.1167 43.0472C47.9103 43.5456 47.8563 44.0939 47.9615 44.623C48.0667 45.152 48.3265 45.638 48.7079 46.0194C49.0893 46.4008 49.5753 46.6605 50.1043 46.7658C50.6333 46.871 51.1817 46.817 51.68 46.6106C52.1784 46.4042 52.6043 46.0546 52.904 45.6061C53.2037 45.1576 53.3636 44.6303 53.3636 44.0909C53.3636 43.3676 53.0763 42.6739 52.5648 42.1624C52.0534 41.651 51.3597 41.3636 50.6364 41.3636ZM88.8182 25H45.1818C43.0119 25 40.9308 25.862 39.3964 27.3964C37.862 28.9308 37 31.0119 37 33.1818V55C37 57.1699 37.862 59.251 39.3964 60.7854C40.9308 62.3198 43.0119 63.1818 45.1818 63.1818H88.8182C90.9881 63.1818 93.0692 62.3198 94.6036 60.7854C96.138 59.251 97 57.1699 97 55V33.1818C97 31.0119 96.138 28.9308 94.6036 27.3964C93.0692 25.862 90.9881 25 88.8182 25ZM91.5454 55C91.5454 55.7233 91.2581 56.417 90.7467 56.9285C90.2352 57.4399 89.5415 57.7273 88.8182 57.7273H45.1818C44.4585 57.7273 43.7648 57.4399 43.2533 56.9285C42.7419 56.417 42.4545 55.7233 42.4545 55V33.1818C42.4545 32.4585 42.7419 31.7648 43.2533 31.2533C43.7648 30.7419 44.4585 30.4545 45.1818 30.4545H88.8182C89.5415 30.4545 90.2352 30.7419 90.7467 31.2533C91.2581 31.7648 91.5454 32.4585 91.5454 33.1818V55ZM67 35.9091C65.3818 35.9091 63.7999 36.3889 62.4544 37.288C61.1089 38.187 60.0602 39.4648 59.441 40.9599C58.8217 42.4549 58.6597 44.1 58.9754 45.6871C59.2911 47.2742 60.0703 48.7321 61.2146 49.8763C62.3588 51.0206 63.8167 51.7998 65.4038 52.1155C66.9909 52.4312 68.636 52.2692 70.131 51.6499C71.6261 51.0307 72.9039 49.982 73.8029 48.6365C74.702 47.291 75.1818 45.7091 75.1818 44.0909C75.1818 41.9209 74.3198 39.8399 72.7854 38.3055C71.251 36.7711 69.1699 35.9091 67 35.9091ZM67 46.8182C66.4606 46.8182 65.9333 46.6582 65.4848 46.3585C65.0363 46.0589 64.6867 45.6329 64.4803 45.1346C64.2739 44.6362 64.2199 44.0879 64.3251 43.5588C64.4304 43.0298 64.6901 42.5438 65.0715 42.1624C65.4529 41.781 65.9389 41.5213 66.4679 41.416C66.997 41.3108 67.5453 41.3648 68.0437 41.5712C68.542 41.7776 68.968 42.1272 69.2676 42.5757C69.5673 43.0242 69.7273 43.5515 69.7273 44.0909C69.7273 44.8142 69.4399 45.5079 68.9285 46.0194C68.417 46.5308 67.7233 46.8182 67 46.8182ZM83.3636 41.3636C82.8242 41.3636 82.2969 41.5236 81.8484 41.8233C81.3999 42.1229 81.0504 42.5489 80.844 43.0472C80.6375 43.5456 80.5835 44.0939 80.6888 44.623C80.794 45.152 81.0537 45.638 81.4352 46.0194C81.8166 46.4008 82.3025 46.6605 82.8316 46.7658C83.3606 46.871 83.909 46.817 84.4073 46.6106C84.9057 46.4042 85.3316 46.0546 85.6313 45.6061C85.931 45.1576 86.0909 44.6303 86.0909 44.0909C86.0909 43.3676 85.8036 42.6739 85.2921 42.1624C84.7806 41.651 84.0869 41.3636 83.3636 41.3636Z" fill="#4488FF"/>
<path d="M851.539 286.562C863.919 303.44 860.272 327.159 843.393 339.539C826.515 351.919 802.796 348.272 790.416 331.394C778.036 314.515 781.683 290.796 798.562 278.416C815.44 266.036 839.159 269.683 851.539 286.562Z" fill="white"/>
<path d="M828.014 328.931L819 316.642L828.874 309.399L837.888 321.688C838.88 323.04 840.802 323.332 842.159 322.336L849.565 316.904C850.923 315.908 851.222 313.987 850.231 312.635L837.612 295.43L841.808 292.352C842.944 291.52 842.459 289.72 841.054 289.617L806.843 286.246C805.292 286.098 803.86 287.148 803.535 288.672L796.472 322.316C796.174 323.669 797.72 324.69 798.855 323.857L803.052 320.779L815.671 337.984C816.663 339.336 818.585 339.627 819.943 338.631L827.348 333.199C828.706 332.203 829.005 330.283 828.014 328.931Z" fill="#4488FF"/>
<path d="M711.009 117.353C706.461 133.859 689.395 143.554 672.889 139.007C656.383 134.459 646.688 117.393 651.235 100.887C655.783 84.3806 672.849 74.6862 689.355 79.2334C705.861 83.7806 715.556 100.847 711.009 117.353Z" fill="white"/>
<path d="M684.317 87.179L689.619 88.6398L688.753 96.9587L690.758 98.5193L699.021 95.9266L701.621 100.504L695.163 106.273L695.476 108.794L703.065 112.311L701.604 117.614L693.285 116.748L691.725 118.753L694.317 127.016L689.74 129.616L683.971 123.157L681.45 123.471L677.933 131.06L672.63 129.599L673.496 121.28L671.491 119.719L663.228 122.312L660.628 117.735L667.087 111.965L666.773 109.444L659.184 105.927L660.645 100.625L668.964 101.491L670.525 99.4859L667.932 91.2226L672.509 88.6228L678.279 95.0814L680.8 94.7675L684.317 87.179ZM683.316 101.166C681.206 100.584 678.952 100.865 677.05 101.946C675.147 103.026 673.752 104.819 673.171 106.928C672.59 109.038 672.87 111.292 673.951 113.194C675.032 115.097 676.824 116.492 678.934 117.073C681.043 117.654 683.297 117.373 685.199 116.293C687.102 115.212 688.497 113.42 689.078 111.31C689.659 109.201 689.379 106.947 688.298 105.045C687.217 103.142 685.425 101.747 683.316 101.166Z" fill="#4488FF"/>
<path d="M395.412 103.387C410.602 124.096 406.127 153.198 385.418 168.388C364.708 183.577 335.607 179.103 320.417 158.393C305.228 137.684 309.702 108.582 330.412 93.3926C351.121 78.2031 380.223 82.6777 395.412 103.387Z" fill="white"/>
<path d="M366.545 155.372L355.486 140.294L367.601 131.408L378.66 146.486C379.877 148.145 382.235 148.502 383.901 147.281L392.987 140.616C394.653 139.394 395.021 137.037 393.804 135.379L378.321 114.269L383.47 110.493C384.863 109.471 384.269 107.263 382.545 107.136L340.569 103C338.666 102.819 336.909 104.107 336.51 105.977L327.845 147.256C327.479 148.916 329.376 150.169 330.769 149.147L335.918 145.37L351.401 166.48C352.618 168.139 354.976 168.496 356.642 167.274L365.728 160.61C367.394 159.388 367.762 157.031 366.545 155.372Z" fill="#4488FF"/>
<circle cx="49.927" cy="307.927" r="38.0402" transform="rotate(-23.135 49.927 307.927)" fill="white"/>
<path d="M40.0226 284.738C26.8018 290.387 20.642 305.737 26.2907 318.957C31.9395 332.178 47.2895 338.338 60.5103 332.689C73.7312 327.041 79.891 311.691 74.2423 298.47C68.5935 285.249 53.2435 279.089 40.0226 284.738ZM60.9279 312.819C60.6547 314.184 60.0443 315.381 59.0532 316.504C58.3095 317.302 57.4612 317.96 56.5145 318.474L57.8914 321.697C58.1016 322.189 57.8733 322.756 57.3826 322.965L54.7233 324.101C54.2314 324.312 53.6649 324.083 53.4552 323.593L51.9592 320.091C51.406 320.182 50.8393 320.221 50.2484 320.206C48.6877 320.232 47.2385 319.806 45.9791 318.939C44.7535 318.158 43.7975 317.043 43.0844 315.547C42.8584 315.074 43.0513 314.508 43.518 314.27L45.8365 313.086C46.3053 312.853 46.8572 313.02 47.1142 313.465C47.5512 314.223 48.0584 314.789 48.5827 315.099C49.1946 315.5 49.8298 315.663 50.6792 315.65C52.4981 315.67 54.4464 314.839 55.5727 313.745C56.0607 313.234 56.3582 312.759 56.4836 312.278C56.5764 311.832 56.5399 311.42 56.3555 310.989C56.1823 310.583 55.9505 310.329 55.5599 310.113C55.3531 309.994 54.8725 309.81 53.8249 309.835C53.3265 309.877 52.0543 310.039 50.1489 310.359C47.9172 310.718 46.5871 310.835 45.6952 310.751C44.3737 310.642 43.2608 310.278 42.3992 309.668C41.5186 309.048 40.8444 308.2 40.395 307.148C39.906 306.003 39.7601 304.776 39.9601 303.501C40.1933 302.24 40.8267 301.059 41.7965 300.057C42.1151 299.708 42.5001 299.366 42.9606 299.026L41.6947 296.063C41.4845 295.572 41.7129 295.005 42.2035 294.795L44.8628 293.659C45.3547 293.449 45.9213 293.677 46.1309 294.168L47.3298 296.974C48.1861 296.766 49.0128 296.651 49.7984 296.632C51.3466 296.66 52.6231 297.039 53.7403 297.792C54.8335 298.486 55.7172 299.502 56.3483 300.795C56.5791 301.269 56.3871 301.841 55.9166 302.08L53.5422 303.289C53.0843 303.524 52.5353 303.36 52.2734 302.925C51.7082 301.98 51.074 301.423 50.3345 301.224C49.4768 300.957 48.4577 301.097 47.1827 301.642C45.934 302.175 45.0348 302.846 44.6501 303.533C44.3378 304.091 44.3039 304.616 44.5463 305.183C44.7329 305.62 45.016 305.904 45.3888 306.029C45.5801 306.081 46.5778 306.256 49.3283 305.709C51.623 305.31 53.3467 305.103 54.3407 305.106C55.9358 305.137 57.224 305.505 58.1839 306.199C59.2106 306.869 59.9739 307.783 60.48 308.968C61.0066 310.2 61.1576 311.495 60.9279 312.819Z" fill="#4488FF"/>
</svg>
