<svg width="39" height="39" viewBox="0 0 39 39" fill="none" xmlns="http://www.w3.org/2000/svg">
<path d="M38.3593 35.2836L30.995 27.941C33.371 24.914 34.6603 21.1759 34.6555 17.3278C34.6555 13.9007 33.6392 10.5505 31.7353 7.70097C29.8313 4.85144 27.125 2.6305 23.9588 1.319C20.7926 0.00750778 17.3085 -0.335639 13.9473 0.332956C10.586 1.00155 7.49852 2.65186 5.07519 5.07519C2.65186 7.49852 1.00155 10.586 0.332956 13.9473C-0.335639 17.3085 0.00750778 20.7926 1.319 23.9588C2.6305 27.125 4.85144 29.8313 7.70097 31.7353C10.5505 33.6392 13.9007 34.6555 17.3278 34.6555C21.1759 34.6603 24.914 33.371 27.941 30.995L35.2836 38.3593C35.485 38.5623 35.7245 38.7235 35.9885 38.8334C36.2524 38.9434 36.5355 39 36.8215 39C37.1074 39 37.3905 38.9434 37.6545 38.8334C37.9184 38.7235 38.158 38.5623 38.3593 38.3593C38.5623 38.158 38.7235 37.9184 38.8334 37.6545C38.9434 37.3905 39 37.1074 39 36.8215C39 36.5355 38.9434 36.2524 38.8334 35.9885C38.7235 35.7245 38.5623 35.485 38.3593 35.2836ZM4.33194 17.3278C4.33194 14.7574 5.09414 12.2448 6.52213 10.1077C7.95013 7.97052 9.9798 6.30481 12.3545 5.32119C14.7291 4.33757 17.3422 4.08021 19.8631 4.58166C22.3841 5.0831 24.6997 6.32083 26.5172 8.13833C28.3347 9.95583 29.5724 12.2715 30.0739 14.7924C30.5753 17.3133 30.3179 19.9264 29.3343 22.301C28.3507 24.6757 26.685 26.7054 24.5478 28.1334C22.4107 29.5614 19.8981 30.3236 17.3278 30.3236C13.8811 30.3236 10.5755 28.9544 8.13833 26.5172C5.70114 24.08 4.33194 20.7745 4.33194 17.3278Z" fill="#176CFF"/>
</svg>
